<svg xmlns="http://www.w3.org/2000/svg" width="1200" height="630" viewBox="0 0 1200 630">
  <defs>
    <radialGradient id="humo" cx="50%" cy="0%" r="75%">
      <stop offset="0" stop-color="#d4a63a" stop-opacity=".55"/>
      <stop offset="1" stop-color="#0a0806" stop-opacity="0"/>
    </radialGradient>
    <radialGradient id="humo-rosa" cx="90%" cy="100%" r="60%">
      <stop offset="0" stop-color="#f2d38a" stop-opacity=".35"/>
      <stop offset="1" stop-color="#0a0806" stop-opacity="0"/>
    </radialGradient>
    <linearGradient id="rayo" x1="0" y1="0" x2="0" y2="1">
      <stop offset="0" stop-color="#fff" stop-opacity=".9"/>
      <stop offset="1" stop-color="#fff" stop-opacity="0"/>
    </linearGradient>
  </defs>
  <rect width="1200" height="630" fill="#0a0806"/>
  <rect width="1200" height="630" fill="url(#humo)"/>
  <rect width="1200" height="630" fill="url(#humo-rosa)"/>
  <g stroke-linecap="round" opacity=".8">
    <line x1="600" y1="-20" x2="80" y2="660" stroke="#2f80ff" stroke-width="2"/>
    <line x1="600" y1="-20" x2="300" y2="660" stroke="#d4a63a" stroke-width="2"/>
    <line x1="600" y1="-20" x2="520" y2="660" stroke="#f2d38a" stroke-width="2"/>
    <line x1="600" y1="-20" x2="760" y2="660" stroke="#2f80ff" stroke-width="2"/>
    <line x1="600" y1="-20" x2="980" y2="660" stroke="#d4a63a" stroke-width="2"/>
    <line x1="600" y1="-20" x2="1180" y2="660" stroke="#f2d38a" stroke-width="2"/>
  </g>
  <g fill="#d4a63a" opacity=".35">
    <rect x="0" y="560" width="30" height="70"/><rect x="40" y="520" width="30" height="110"/><rect x="80" y="575" width="30" height="55"/>
    <rect x="120" y="500" width="30" height="130"/><rect x="160" y="545" width="30" height="85"/><rect x="200" y="585" width="30" height="45"/>
    <rect x="970" y="540" width="30" height="90"/><rect x="1010" y="505" width="30" height="125"/><rect x="1050" y="565" width="30" height="65"/>
    <rect x="1090" y="530" width="30" height="100"/><rect x="1130" y="580" width="30" height="50"/><rect x="1170" y="550" width="30" height="80"/>
  </g>
  <text x="600" y="345" text-anchor="middle" font-family="'Big Shoulders Display','Arial Narrow',sans-serif" font-weight="900" font-size="260" fill="#faf7f0" letter-spacing="-4">SKPAT</text>
  <text x="600" y="440" text-anchor="middle" font-family="'Big Shoulders Display','Arial Narrow',sans-serif" font-weight="900" font-size="96" fill="none" stroke="#f9a8d4" stroke-width="3" letter-spacing="40">VIP</text>
  <text x="600" y="520" text-anchor="middle" font-family="'Figtree','Segoe UI',sans-serif" font-weight="700" font-size="34" fill="#faf7f0">Electrónica y guaracha · Vie–Sáb 9 PM – 4 AM · Cra. 15 #93-47, Bogotá</text>
</svg>
